# xmcd CD database file
#
# Track frame offsets:
#	150
#	14773
#	38173
#	54300
#	73200
#	87148
#	103123
#	129971
#	150670
#	175493
#
# Disc length: 2577 seconds
#
# Revision: 0
# Processed by: cddbd v1.5.1PL0 Copyright (c) Steve Scherf et al.
# Submitted via: CDex 1.50Beta7
#
DISCID=820a0f0a
DTITLE=白浜久 - Autumn
DYEAR=2005
DGENRE=Rock
TTITLE0=夏の終わりに
TTITLE1=不思議の国の住人
TTITLE2=それでも
TTITLE3=空の穴
TTITLE4=Love ＆ Gold
TTITLE5=全てを失う前に
TTITLE6=蒼い雨
TTITLE7=Bye Bye Mr. Niceguy
TTITLE8=空と大地 君と僕
TTITLE9=Tribal Dream
EXTD=YEAR: 2005
EXTT0=
EXTT1=
EXTT2=
EXTT3=
EXTT4=
EXTT5=
EXTT6=
EXTT7=
EXTT8=
EXTT9=
PLAYORDER=
